<svg version="1.1" xmlns="http://www.w3.org/2000/svg" xmlns:xlink="http://www.w3.org/1999/xlink" width="861.998046875" height="613"><defs/><g><text fill="#eeeeee" stroke="none" font-family="Arial" font-size="24px" font-style="normal" font-weight="normal" text-decoration="none" x="0" y="0">UNREGISTERED</text><text fill="#eeeeee" stroke="none" font-family="Arial" font-size="24px" font-style="normal" font-weight="normal" text-decoration="none" x="0" y="30">UNREGISTERED</text><text fill="#eeeeee" stroke="none" font-family="Arial" font-size="24px" font-style="normal" font-weight="normal" text-decoration="none" x="0" y="60">UNREGISTERED</text><text fill="#eeeeee" stroke="none" font-family="Arial" font-size="24px" font-style="normal" font-weight="normal" text-decoration="none" x="0" y="90">UNREGISTERED</text><text fill="#eeeeee" stroke="none" font-family="Arial" font-size="24px" font-style="normal" font-weight="normal" text-decoration="none" x="0" y="120">UNREGISTERED</text><text fill="#eeeeee" stroke="none" font-family="Arial" font-size="24px" font-style="normal" font-weight="normal" text-decoration="none" x="0" y="150">UNREGISTERED</text><text fill="#eeeeee" stroke="none" font-family="Arial" font-size="24px" font-style="normal" font-weight="normal" text-decoration="none" x="0" y="180">UNREGISTERED</text><text fill="#eeeeee" stroke="none" font-family="Arial" font-size="24px" font-style="normal" font-weight="normal" text-decoration="none" x="0" y="210">UNREGISTERED</text><text fill="#eeeeee" stroke="none" font-family="Arial" font-size="24px" font-style="normal" font-weight="normal" text-decoration="none" x="0" y="240">UNREGISTERED</text><text fill="#eeeeee" stroke="none" font-family="Arial" font-size="24px" font-style="normal" font-weight="normal" text-decoration="none" x="0" y="270">UNREGISTERED</text><text fill="#eeeeee" stroke="none" font-family="Arial" font-size="24px" font-style="normal" font-weight="normal" text-decoration="none" x="0" y="300">UNREGISTERED</text><text fill="#eeeeee" stroke="none" font-family="Arial" font-size="24px" font-style="normal" font-weight="normal" text-decoration="none" x="0" y="330">UNREGISTERED</text><text fill="#eeeeee" stroke="none" font-family="Arial" font-size="24px" font-style="normal" font-weight="normal" text-decoration="none" x="0" y="360">UNREGISTERED</text><text fill="#eeeeee" stroke="none" font-family="Arial" font-size="24px" font-style="normal" font-weight="normal" text-decoration="none" x="0" y="390">UNREGISTERED</text><text fill="#eeeeee" stroke="none" font-family="Arial" font-size="24px" font-style="normal" font-weight="normal" text-decoration="none" x="0" y="420">UNREGISTERED</text><text fill="#eeeeee" stroke="none" font-family="Arial" font-size="24px" font-style="normal" font-weight="normal" text-decoration="none" x="0" y="450">UNREGISTERED</text><text fill="#eeeeee" stroke="none" font-family="Arial" font-size="24px" font-style="normal" font-weight="normal" text-decoration="none" x="0" y="480">UNREGISTERED</text><text fill="#eeeeee" stroke="none" font-family="Arial" font-size="24px" font-style="normal" font-weight="normal" text-decoration="none" x="0" y="510">UNREGISTERED</text><text fill="#eeeeee" stroke="none" font-family="Arial" font-size="24px" font-style="normal" font-weight="normal" text-decoration="none" x="0" y="540">UNREGISTERED</text><text fill="#eeeeee" stroke="none" font-family="Arial" font-size="24px" font-style="normal" font-weight="normal" text-decoration="none" x="0" y="570">UNREGISTERED</text><text fill="#eeeeee" stroke="none" font-family="Arial" font-size="24px" font-style="normal" font-weight="normal" text-decoration="none" x="0" y="600">UNREGISTERED</text><text fill="#eeeeee" stroke="none" font-family="Arial" font-size="24px" font-style="normal" font-weight="normal" text-decoration="none" x="200" y="0">UNREGISTERED</text><text fill="#eeeeee" stroke="none" font-family="Arial" font-size="24px" font-style="normal" font-weight="normal" text-decoration="none" x="200" y="30">UNREGISTERED</text><text fill="#eeeeee" stroke="none" font-family="Arial" font-size="24px" font-style="normal" font-weight="normal" text-decoration="none" x="200" y="60">UNREGISTERED</text><text fill="#eeeeee" stroke="none" font-family="Arial" font-size="24px" font-style="normal" font-weight="normal" text-decoration="none" x="200" y="90">UNREGISTERED</text><text fill="#eeeeee" stroke="none" font-family="Arial" font-size="24px" font-style="normal" font-weight="normal" text-decoration="none" x="200" y="120">UNREGISTERED</text><text fill="#eeeeee" stroke="none" font-family="Arial" font-size="24px" font-style="normal" font-weight="normal" text-decoration="none" x="200" y="150">UNREGISTERED</text><text fill="#eeeeee" stroke="none" font-family="Arial" font-size="24px" font-style="normal" font-weight="normal" text-decoration="none" x="200" y="180">UNREGISTERED</text><text fill="#eeeeee" stroke="none" font-family="Arial" font-size="24px" font-style="normal" font-weight="normal" text-decoration="none" x="200" y="210">UNREGISTERED</text><text fill="#eeeeee" stroke="none" font-family="Arial" font-size="24px" font-style="normal" font-weight="normal" text-decoration="none" x="200" y="240">UNREGISTERED</text><text fill="#eeeeee" stroke="none" font-family="Arial" font-size="24px" font-style="normal" font-weight="normal" text-decoration="none" x="200" y="270">UNREGISTERED</text><text fill="#eeeeee" stroke="none" font-family="Arial" font-size="24px" font-style="normal" font-weight="normal" text-decoration="none" x="200" y="300">UNREGISTERED</text><text fill="#eeeeee" stroke="none" font-family="Arial" font-size="24px" font-style="normal" font-weight="normal" text-decoration="none" x="200" y="330">UNREGISTERED</text><text fill="#eeeeee" stroke="none" font-family="Arial" font-size="24px" font-style="normal" font-weight="normal" text-decoration="none" x="200" y="360">UNREGISTERED</text><text fill="#eeeeee" stroke="none" font-family="Arial" font-size="24px" font-style="normal" font-weight="normal" text-decoration="none" x="200" y="390">UNREGISTERED</text><text fill="#eeeeee" stroke="none" font-family="Arial" font-size="24px" font-style="normal" font-weight="normal" text-decoration="none" x="200" y="420">UNREGISTERED</text><text fill="#eeeeee" stroke="none" font-family="Arial" font-size="24px" font-style="normal" font-weight="normal" text-decoration="none" x="200" y="450">UNREGISTERED</text><text fill="#eeeeee" stroke="none" font-family="Arial" font-size="24px" font-style="normal" font-weight="normal" text-decoration="none" x="200" y="480">UNREGISTERED</text><text fill="#eeeeee" stroke="none" font-family="Arial" font-size="24px" font-style="normal" font-weight="normal" text-decoration="none" x="200" y="510">UNREGISTERED</text><text fill="#eeeeee" stroke="none" font-family="Arial" font-size="24px" font-style="normal" font-weight="normal" text-decoration="none" x="200" y="540">UNREGISTERED</text><text fill="#eeeeee" stroke="none" font-family="Arial" font-size="24px" font-style="normal" font-weight="normal" text-decoration="none" x="200" y="570">UNREGISTERED</text><text fill="#eeeeee" stroke="none" font-family="Arial" font-size="24px" font-style="normal" font-weight="normal" text-decoration="none" x="200" y="600">UNREGISTERED</text><text fill="#eeeeee" stroke="none" font-family="Arial" font-size="24px" font-style="normal" font-weight="normal" text-decoration="none" x="400" y="0">UNREGISTERED</text><text fill="#eeeeee" stroke="none" font-family="Arial" font-size="24px" font-style="normal" font-weight="normal" text-decoration="none" x="400" y="30">UNREGISTERED</text><text fill="#eeeeee" stroke="none" font-family="Arial" font-size="24px" font-style="normal" font-weight="normal" text-decoration="none" x="400" y="60">UNREGISTERED</text><text fill="#eeeeee" stroke="none" font-family="Arial" font-size="24px" font-style="normal" font-weight="normal" text-decoration="none" x="400" y="90">UNREGISTERED</text><text fill="#eeeeee" stroke="none" font-family="Arial" font-size="24px" font-style="normal" font-weight="normal" text-decoration="none" x="400" y="120">UNREGISTERED</text><text fill="#eeeeee" stroke="none" font-family="Arial" font-size="24px" font-style="normal" font-weight="normal" text-decoration="none" x="400" y="150">UNREGISTERED</text><text fill="#eeeeee" stroke="none" font-family="Arial" font-size="24px" font-style="normal" font-weight="normal" text-decoration="none" x="400" y="180">UNREGISTERED</text><text fill="#eeeeee" stroke="none" font-family="Arial" font-size="24px" font-style="normal" font-weight="normal" text-decoration="none" x="400" y="210">UNREGISTERED</text><text fill="#eeeeee" stroke="none" font-family="Arial" font-size="24px" font-style="normal" font-weight="normal" text-decoration="none" x="400" y="240">UNREGISTERED</text><text fill="#eeeeee" stroke="none" font-family="Arial" font-size="24px" font-style="normal" font-weight="normal" text-decoration="none" x="400" y="270">UNREGISTERED</text><text fill="#eeeeee" stroke="none" font-family="Arial" font-size="24px" font-style="normal" font-weight="normal" text-decoration="none" x="400" y="300">UNREGISTERED</text><text fill="#eeeeee" stroke="none" font-family="Arial" font-size="24px" font-style="normal" font-weight="normal" text-decoration="none" x="400" y="330">UNREGISTERED</text><text fill="#eeeeee" stroke="none" font-family="Arial" font-size="24px" font-style="normal" font-weight="normal" text-decoration="none" x="400" y="360">UNREGISTERED</text><text fill="#eeeeee" stroke="none" font-family="Arial" font-size="24px" font-style="normal" font-weight="normal" text-decoration="none" x="400" y="390">UNREGISTERED</text><text fill="#eeeeee" stroke="none" font-family="Arial" font-size="24px" font-style="normal" font-weight="normal" text-decoration="none" x="400" y="420">UNREGISTERED</text><text fill="#eeeeee" stroke="none" font-family="Arial" font-size="24px" font-style="normal" font-weight="normal" text-decoration="none" x="400" y="450">UNREGISTERED</text><text fill="#eeeeee" stroke="none" font-family="Arial" font-size="24px" font-style="normal" font-weight="normal" text-decoration="none" x="400" y="480">UNREGISTERED</text><text fill="#eeeeee" stroke="none" font-family="Arial" font-size="24px" font-style="normal" font-weight="normal" text-decoration="none" x="400" y="510">UNREGISTERED</text><text fill="#eeeeee" stroke="none" font-family="Arial" font-size="24px" font-style="normal" font-weight="normal" text-decoration="none" x="400" y="540">UNREGISTERED</text><text fill="#eeeeee" stroke="none" font-family="Arial" font-size="24px" font-style="normal" font-weight="normal" text-decoration="none" x="400" y="570">UNREGISTERED</text><text fill="#eeeeee" stroke="none" font-family="Arial" font-size="24px" font-style="normal" font-weight="normal" text-decoration="none" x="400" y="600">UNREGISTERED</text><text fill="#eeeeee" stroke="none" font-family="Arial" font-size="24px" font-style="normal" font-weight="normal" text-decoration="none" x="600" y="0">UNREGISTERED</text><text fill="#eeeeee" stroke="none" font-family="Arial" font-size="24px" font-style="normal" font-weight="normal" text-decoration="none" x="600" y="30">UNREGISTERED</text><text fill="#eeeeee" stroke="none" font-family="Arial" font-size="24px" font-style="normal" font-weight="normal" text-decoration="none" x="600" y="60">UNREGISTERED</text><text fill="#eeeeee" stroke="none" font-family="Arial" font-size="24px" font-style="normal" font-weight="normal" text-decoration="none" x="600" y="90">UNREGISTERED</text><text fill="#eeeeee" stroke="none" font-family="Arial" font-size="24px" font-style="normal" font-weight="normal" text-decoration="none" x="600" y="120">UNREGISTERED</text><text fill="#eeeeee" stroke="none" font-family="Arial" font-size="24px" font-style="normal" font-weight="normal" text-decoration="none" x="600" y="150">UNREGISTERED</text><text fill="#eeeeee" stroke="none" font-family="Arial" font-size="24px" font-style="normal" font-weight="normal" text-decoration="none" x="600" y="180">UNREGISTERED</text><text fill="#eeeeee" stroke="none" font-family="Arial" font-size="24px" font-style="normal" font-weight="normal" text-decoration="none" x="600" y="210">UNREGISTERED</text><text fill="#eeeeee" stroke="none" font-family="Arial" font-size="24px" font-style="normal" font-weight="normal" text-decoration="none" x="600" y="240">UNREGISTERED</text><text fill="#eeeeee" stroke="none" font-family="Arial" font-size="24px" font-style="normal" font-weight="normal" text-decoration="none" x="600" y="270">UNREGISTERED</text><text fill="#eeeeee" stroke="none" font-family="Arial" font-size="24px" font-style="normal" font-weight="normal" text-decoration="none" x="600" y="300">UNREGISTERED</text><text fill="#eeeeee" stroke="none" font-family="Arial" font-size="24px" font-style="normal" font-weight="normal" text-decoration="none" x="600" y="330">UNREGISTERED</text><text fill="#eeeeee" stroke="none" font-family="Arial" font-size="24px" font-style="normal" font-weight="normal" text-decoration="none" x="600" y="360">UNREGISTERED</text><text fill="#eeeeee" stroke="none" font-family="Arial" font-size="24px" font-style="normal" font-weight="normal" text-decoration="none" x="600" y="390">UNREGISTERED</text><text fill="#eeeeee" stroke="none" font-family="Arial" font-size="24px" font-style="normal" font-weight="normal" text-decoration="none" x="600" y="420">UNREGISTERED</text><text fill="#eeeeee" stroke="none" font-family="Arial" font-size="24px" font-style="normal" font-weight="normal" text-decoration="none" x="600" y="450">UNREGISTERED</text><text fill="#eeeeee" stroke="none" font-family="Arial" font-size="24px" font-style="normal" font-weight="normal" text-decoration="none" x="600" y="480">UNREGISTERED</text><text fill="#eeeeee" stroke="none" font-family="Arial" font-size="24px" font-style="normal" font-weight="normal" text-decoration="none" x="600" y="510">UNREGISTERED</text><text fill="#eeeeee" stroke="none" font-family="Arial" font-size="24px" font-style="normal" font-weight="normal" text-decoration="none" x="600" y="540">UNREGISTERED</text><text fill="#eeeeee" stroke="none" font-family="Arial" font-size="24px" font-style="normal" font-weight="normal" text-decoration="none" x="600" y="570">UNREGISTERED</text><text fill="#eeeeee" stroke="none" font-family="Arial" font-size="24px" font-style="normal" font-weight="normal" text-decoration="none" x="600" y="600">UNREGISTERED</text><text fill="#eeeeee" stroke="none" font-family="Arial" font-size="24px" font-style="normal" font-weight="normal" text-decoration="none" x="800" y="0">UNREGISTERED</text><text fill="#eeeeee" stroke="none" font-family="Arial" font-size="24px" font-style="normal" font-weight="normal" text-decoration="none" x="800" y="30">UNREGISTERED</text><text fill="#eeeeee" stroke="none" font-family="Arial" font-size="24px" font-style="normal" font-weight="normal" text-decoration="none" x="800" y="60">UNREGISTERED</text><text fill="#eeeeee" stroke="none" font-family="Arial" font-size="24px" font-style="normal" font-weight="normal" text-decoration="none" x="800" y="90">UNREGISTERED</text><text fill="#eeeeee" stroke="none" font-family="Arial" font-size="24px" font-style="normal" font-weight="normal" text-decoration="none" x="800" y="120">UNREGISTERED</text><text fill="#eeeeee" stroke="none" font-family="Arial" font-size="24px" font-style="normal" font-weight="normal" text-decoration="none" x="800" y="150">UNREGISTERED</text><text fill="#eeeeee" stroke="none" font-family="Arial" font-size="24px" font-style="normal" font-weight="normal" text-decoration="none" x="800" y="180">UNREGISTERED</text><text fill="#eeeeee" stroke="none" font-family="Arial" font-size="24px" font-style="normal" font-weight="normal" text-decoration="none" x="800" y="210">UNREGISTERED</text><text fill="#eeeeee" stroke="none" font-family="Arial" font-size="24px" font-style="normal" font-weight="normal" text-decoration="none" x="800" y="240">UNREGISTERED</text><text fill="#eeeeee" stroke="none" font-family="Arial" font-size="24px" font-style="normal" font-weight="normal" text-decoration="none" x="800" y="270">UNREGISTERED</text><text fill="#eeeeee" stroke="none" font-family="Arial" font-size="24px" font-style="normal" font-weight="normal" text-decoration="none" x="800" y="300">UNREGISTERED</text><text fill="#eeeeee" stroke="none" font-family="Arial" font-size="24px" font-style="normal" font-weight="normal" text-decoration="none" x="800" y="330">UNREGISTERED</text><text fill="#eeeeee" stroke="none" font-family="Arial" font-size="24px" font-style="normal" font-weight="normal" text-decoration="none" x="800" y="360">UNREGISTERED</text><text fill="#eeeeee" stroke="none" font-family="Arial" font-size="24px" font-style="normal" font-weight="normal" text-decoration="none" x="800" y="390">UNREGISTERED</text><text fill="#eeeeee" stroke="none" font-family="Arial" font-size="24px" font-style="normal" font-weight="normal" text-decoration="none" x="800" y="420">UNREGISTERED</text><text fill="#eeeeee" stroke="none" font-family="Arial" font-size="24px" font-style="normal" font-weight="normal" text-decoration="none" x="800" y="450">UNREGISTERED</text><text fill="#eeeeee" stroke="none" font-family="Arial" font-size="24px" font-style="normal" font-weight="normal" text-decoration="none" x="800" y="480">UNREGISTERED</text><text fill="#eeeeee" stroke="none" font-family="Arial" font-size="24px" font-style="normal" font-weight="normal" text-decoration="none" x="800" y="510">UNREGISTERED</text><text fill="#eeeeee" stroke="none" font-family="Arial" font-size="24px" font-style="normal" font-weight="normal" text-decoration="none" x="800" y="540">UNREGISTERED</text><text fill="#eeeeee" stroke="none" font-family="Arial" font-size="24px" font-style="normal" font-weight="normal" text-decoration="none" x="800" y="570">UNREGISTERED</text><text fill="#eeeeee" stroke="none" font-family="Arial" font-size="24px" font-style="normal" font-weight="normal" text-decoration="none" x="800" y="600">UNREGISTERED</text><g transform="translate(-14,-14) scale(1,1)"><rect fill="#C0C0C0" stroke="none" x="551" y="383" width="72.2353515625" height="57" opacity="0.2"/></g><g transform="translate(-14,-14) scale(1,1)"><rect fill="#ffffff" stroke="none" x="544" y="376" width="72.2353515625" height="57"/></g><g transform="translate(-14,-14) scale(1,1)"><path fill="none" stroke="#000000" d="M 544 376 L 616.2353515625 376 L 616.2353515625 433 L 544 433 L 544 376 Z Z" stroke-miterlimit="10"/></g><g transform="translate(-14,-14) scale(1,1)"><path fill="none" stroke="#000000" d="M 544 401 L 616.2353515625 401" stroke-miterlimit="10"/></g><g transform="translate(-14,-14) scale(1,1)"><path fill="none" stroke="#000000" d="M 544 424 L 616.2353515625 424" stroke-miterlimit="10"/></g><g transform="translate(-14,-14) scale(1,1)"><g><path fill="none" stroke="none"/><text fill="#000000" stroke="none" font-family="Arial" font-size="13px" font-style="normal" font-weight="bold" text-decoration="none" x="562.417236328125" y="395.5">Game</text></g></g><g transform="translate(-14,-14) scale(1,1)"><g><path fill="none" stroke="none"/><text fill="#000000" stroke="none" font-family="Arial" font-size="13px" font-style="normal" font-weight="normal" text-decoration="none" x="549" y="418.5">-turn: int</text></g></g><g transform="translate(-14,-14) scale(1,1)"><rect fill="#C0C0C0" stroke="none" x="167" y="399" width="90.29443359375" height="87" opacity="0.2"/></g><g transform="translate(-14,-14) scale(1,1)"><rect fill="#ffffff" stroke="none" x="160" y="392" width="90.29443359375" height="87"/></g><g transform="translate(-14,-14) scale(1,1)"><path fill="none" stroke="#000000" d="M 160 392 L 250.29443359375 392 L 250.29443359375 479 L 160 479 L 160 392 Z Z" stroke-miterlimit="10"/></g><g transform="translate(-14,-14) scale(1,1)"><path fill="none" stroke="#000000" d="M 160 417 L 250.29443359375 417" stroke-miterlimit="10"/></g><g transform="translate(-14,-14) scale(1,1)"><path fill="none" stroke="#000000" d="M 160 440 L 250.29443359375 440" stroke-miterlimit="10"/></g><g transform="translate(-14,-14) scale(1,1)"><g><path fill="none" stroke="none"/><text fill="#000000" stroke="none" font-family="Arial" font-size="13px" font-style="normal" font-weight="bold" text-decoration="none" x="179.858154296875" y="411.5">Province</text></g></g><g transform="translate(-14,-14) scale(1,1)"><g><path fill="none" stroke="none"/><text fill="#000000" stroke="none" font-family="Arial" font-size="13px" font-style="normal" font-weight="normal" text-decoration="none" x="165" y="434.5">-name: String</text></g></g><g transform="translate(-14,-14) scale(1,1)"><rect fill="#C0C0C0" stroke="none" x="47" y="407" width="50.919921875" height="44" opacity="0.2"/></g><g transform="translate(-14,-14) scale(1,1)"><rect fill="#ffffff" stroke="none" x="40" y="400" width="50.919921875" height="44"/></g><g transform="translate(-14,-14) scale(1,1)"><path fill="none" stroke="#000000" d="M 40 400 L 90.919921875 400 L 90.919921875 444 L 40 444 L 40 400 Z Z" stroke-miterlimit="10"/></g><g transform="translate(-14,-14) scale(1,1)"><path fill="none" stroke="#000000" d="M 40 425 L 90.919921875 425" stroke-miterlimit="10"/></g><g transform="translate(-14,-14) scale(1,1)"><path fill="none" stroke="#000000" d="M 40 435 L 90.919921875 435" stroke-miterlimit="10"/></g><g transform="translate(-14,-14) scale(1,1)"><g><path fill="none" stroke="none"/><text fill="#000000" stroke="none" font-family="Arial" font-size="13px" font-style="normal" font-weight="bold" text-decoration="none" x="46.30908203125" y="419.5">Parent</text></g></g><g transform="translate(-14,-14) scale(1,1)"><rect fill="#C0C0C0" stroke="none" x="31" y="495" width="50.919921875" height="44" opacity="0.2"/></g><g transform="translate(-14,-14) scale(1,1)"><rect fill="#ffffff" stroke="none" x="24" y="488" width="50.919921875" height="44"/></g><g transform="translate(-14,-14) scale(1,1)"><path fill="none" stroke="#000000" d="M 24 488 L 74.919921875 488 L 74.919921875 532 L 24 532 L 24 488 Z Z" stroke-miterlimit="10"/></g><g transform="translate(-14,-14) scale(1,1)"><path fill="none" stroke="#000000" d="M 24 513 L 74.919921875 513" stroke-miterlimit="10"/></g><g transform="translate(-14,-14) scale(1,1)"><path fill="none" stroke="#000000" d="M 24 523 L 74.919921875 523" stroke-miterlimit="10"/></g><g transform="translate(-14,-14) scale(1,1)"><g><path fill="none" stroke="none"/><text fill="#000000" stroke="none" font-family="Arial" font-size="13px" font-style="normal" font-weight="bold" text-decoration="none" x="34.647705078125" y="507.5">Child</text></g></g><g transform="translate(-14,-14) scale(1,1)"><path fill="none" stroke="#000000" d="M 92 424 L 159 431" stroke-miterlimit="10"/></g><g transform="translate(-14,-14) scale(1,1)"><path fill="#FFFFFF" stroke="none" d="M 137.90984271045102 437.26141082361505 L 159 431 L 139.65952071109595 420.5144928174421"/></g><g transform="translate(-14,-14) scale(1,1)"><path fill="none" stroke="#000000" d="M 137.90984271045102 437.26141082361505 L 159 431 L 139.65952071109595 420.5144928174421 L 137.90984271045102 437.26141082361505" stroke-miterlimit="10"/></g><g transform="translate(-14,-14) scale(1,1)"><path fill="none" stroke="#000000" d="M 76 497 L 159 457" stroke-miterlimit="10"/></g><g transform="translate(-14,-14) scale(1,1)"><path fill="#FFFFFF" stroke="none" d="M 144.34507699984164 473.40832812505374 L 159 457 L 137.03496448366187 458.23984465398075"/></g><g transform="translate(-14,-14) scale(1,1)"><path fill="none" stroke="#000000" d="M 144.34507699984164 473.40832812505374 L 159 457 L 137.03496448366187 458.23984465398075 L 144.34507699984164 473.40832812505374" stroke-miterlimit="10"/></g><g transform="translate(-14,-14) scale(1,1)"><rect fill="#C0C0C0" stroke="none" x="175" y="39" width="72.2353515625" height="57" opacity="0.2"/></g><g transform="translate(-14,-14) scale(1,1)"><rect fill="#ffffff" stroke="none" x="168" y="32" width="72.2353515625" height="57"/></g><g transform="translate(-14,-14) scale(1,1)"><path fill="none" stroke="#000000" d="M 168 32 L 240.2353515625 32 L 240.2353515625 89 L 168 89 L 168 32 Z Z" stroke-miterlimit="10"/></g><g transform="translate(-14,-14) scale(1,1)"><path fill="none" stroke="#000000" d="M 168 57 L 240.2353515625 57" stroke-miterlimit="10"/></g><g transform="translate(-14,-14) scale(1,1)"><path fill="none" stroke="#000000" d="M 168 67 L 240.2353515625 67" stroke-miterlimit="10"/></g><g transform="translate(-14,-14) scale(1,1)"><g><path fill="none" stroke="none"/><text fill="#000000" stroke="none" font-family="Arial" font-size="13px" font-style="normal" font-weight="bold" text-decoration="none" x="192.55859375" y="51.5">Unit</text></g></g><g transform="translate(-14,-14) scale(1,1)"><rect fill="#C0C0C0" stroke="none" x="423" y="31" width="69.70263671875" height="57" opacity="0.2"/></g><g transform="translate(-14,-14) scale(1,1)"><rect fill="#ffffff" stroke="none" x="416" y="24" width="69.70263671875" height="57"/></g><g transform="translate(-14,-14) scale(1,1)"><path fill="none" stroke="#000000" d="M 416 24 L 485.70263671875 24 L 485.70263671875 81 L 416 81 L 416 24 Z Z" stroke-miterlimit="10"/></g><g transform="translate(-14,-14) scale(1,1)"><path fill="none" stroke="#000000" d="M 416 62 L 485.70263671875 62" stroke-miterlimit="10"/></g><g transform="translate(-14,-14) scale(1,1)"><path fill="none" stroke="#000000" d="M 416 72 L 485.70263671875 72" stroke-miterlimit="10"/></g><g transform="translate(-14,-14) scale(1,1)"><g><path fill="none" stroke="none"/><text fill="#000000" stroke="none" font-family="Arial" font-size="13px" font-style="normal" font-weight="normal" text-decoration="none" x="420.5" y="41.5">«abstract»</text></g></g><g transform="translate(-14,-14) scale(1,1)"><g><path fill="none" stroke="none"/><text fill="#000000" stroke="none" font-family="Arial" font-size="13px" font-style="normal" font-weight="bold" text-decoration="none" x="428.091796875" y="56.5">Country</text></g></g><g transform="translate(-14,-14) scale(1,1)"><path fill="none" stroke="#000000" d="M 241 59 L 415 53" stroke-miterlimit="10"/></g><g transform="translate(-14,-14) scale(1,1)"><path fill="none" stroke="#000000" d="M 404.98843133987083 57.557246203961256 L 415 53 L 404.69829221575026 49.1432116044656" stroke-miterlimit="10"/></g><g transform="translate(-14,-14) scale(1,1)"><g><path fill="none" stroke="none"/><text fill="#000000" stroke="none" font-family="Arial" font-size="13px" font-style="normal" font-weight="normal" text-decoration="none" x="302.5" y="47.5">-location</text></g></g><g transform="translate(-14,-14) scale(1,1)"><rect fill="#C0C0C0" stroke="none" x="79" y="127" width="50.919921875" height="44" opacity="0.2"/></g><g transform="translate(-14,-14) scale(1,1)"><rect fill="#ffffff" stroke="none" x="72" y="120" width="50.919921875" height="44"/></g><g transform="translate(-14,-14) scale(1,1)"><path fill="none" stroke="#000000" d="M 72 120 L 122.919921875 120 L 122.919921875 164 L 72 164 L 72 120 Z Z" stroke-miterlimit="10"/></g><g transform="translate(-14,-14) scale(1,1)"><path fill="none" stroke="#000000" d="M 72 145 L 122.919921875 145" stroke-miterlimit="10"/></g><g transform="translate(-14,-14) scale(1,1)"><path fill="none" stroke="#000000" d="M 72 155 L 122.919921875 155" stroke-miterlimit="10"/></g><g transform="translate(-14,-14) scale(1,1)"><g><path fill="none" stroke="none"/><text fill="#000000" stroke="none" font-family="Arial" font-size="13px" font-style="normal" font-weight="bold" text-decoration="none" x="82.29541015625" y="139.5">Army</text></g></g><g transform="translate(-14,-14) scale(1,1)"><rect fill="#C0C0C0" stroke="none" x="271" y="127" width="50.919921875" height="44" opacity="0.2"/></g><g transform="translate(-14,-14) scale(1,1)"><rect fill="#ffffff" stroke="none" x="264" y="120" width="50.919921875" height="44"/></g><g transform="translate(-14,-14) scale(1,1)"><path fill="none" stroke="#000000" d="M 264 120 L 314.919921875 120 L 314.919921875 164 L 264 164 L 264 120 Z Z" stroke-miterlimit="10"/></g><g transform="translate(-14,-14) scale(1,1)"><path fill="none" stroke="#000000" d="M 264 145 L 314.919921875 145" stroke-miterlimit="10"/></g><g transform="translate(-14,-14) scale(1,1)"><path fill="none" stroke="#000000" d="M 264 155 L 314.919921875 155" stroke-miterlimit="10"/></g><g transform="translate(-14,-14) scale(1,1)"><g><path fill="none" stroke="none"/><text fill="#000000" stroke="none" font-family="Arial" font-size="13px" font-style="normal" font-weight="bold" text-decoration="none" x="275.009521484375" y="139.5">Fleet</text></g></g><g transform="translate(-14,-14) scale(1,1)"><path fill="none" stroke="#000000" d="M 124 121 L 167 88" stroke-miterlimit="10"/></g><g transform="translate(-14,-14) scale(1,1)"><path fill="#FFFFFF" stroke="none" d="M 156.001377487325 107.05335410954402 L 167 88 L 145.75004354236933 93.69555533278361"/></g><g transform="translate(-14,-14) scale(1,1)"><path fill="none" stroke="#000000" d="M 156.001377487325 107.05335410954402 L 167 88 L 145.75004354236933 93.69555533278361 L 156.001377487325 107.05335410954402" stroke-miterlimit="10"/></g><g transform="translate(-14,-14) scale(1,1)"><path fill="none" stroke="#000000" d="M 265 119 L 235 90" stroke-miterlimit="10"/></g><g transform="translate(-14,-14) scale(1,1)"><path fill="#FFFFFF" stroke="none" d="M 255.4651058994025 98.07337850755444 L 235 90 L 243.76227446939086 110.17975584894577"/></g><g transform="translate(-14,-14) scale(1,1)"><path fill="none" stroke="#000000" d="M 255.4651058994025 98.07337850755444 L 235 90 L 243.76227446939086 110.17975584894577 L 255.4651058994025 98.07337850755444" stroke-miterlimit="10"/></g><g transform="translate(-14,-14) scale(1,1)"><rect fill="#C0C0C0" stroke="none" x="791" y="271" width="81.998046875" height="57" opacity="0.2"/></g><g transform="translate(-14,-14) scale(1,1)"><rect fill="#ffffff" stroke="none" x="784" y="264" width="81.998046875" height="57"/></g><g transform="translate(-14,-14) scale(1,1)"><path fill="none" stroke="#000000" d="M 784 264 L 865.998046875 264 L 865.998046875 321 L 784 321 L 784 264 Z Z" stroke-miterlimit="10"/></g><g transform="translate(-14,-14) scale(1,1)"><path fill="none" stroke="#000000" d="M 784 302 L 865.998046875 302" stroke-miterlimit="10"/></g><g transform="translate(-14,-14) scale(1,1)"><path fill="none" stroke="#000000" d="M 784 312 L 865.998046875 312" stroke-miterlimit="10"/></g><g transform="translate(-14,-14) scale(1,1)"><g><path fill="none" stroke="none"/><text fill="#000000" stroke="none" font-family="Arial" font-size="13px" font-style="normal" font-weight="normal" text-decoration="none" x="788.5" y="281.5">«Behaviour»</text></g></g><g transform="translate(-14,-14) scale(1,1)"><g><path fill="none" stroke="none"/><text fill="#000000" stroke="none" font-family="Arial" font-size="13px" font-style="normal" font-weight="bold" text-decoration="none" x="809.1044921875" y="296.5">Plays</text></g></g><g transform="translate(-14,-14) scale(1,1)"><path fill="none" stroke="#000000" d="M 783 266 L 487 76" stroke-miterlimit="10"/></g><g transform="translate(-14,-14) scale(1,1)"><path fill="none" stroke="#000000" d="M 497.8262850545997 77.94719077559232 L 487 76 L 493.2784677754808 85.03221137885122" stroke-miterlimit="10"/></g><g transform="translate(-14,-14) scale(1,1)"><rect fill="#C0C0C0" stroke="none" x="447" y="431" width="50.919921875" height="44" opacity="0.2"/></g><g transform="translate(-14,-14) scale(1,1)"><rect fill="#ffffff" stroke="none" x="440" y="424" width="50.919921875" height="44"/></g><g transform="translate(-14,-14) scale(1,1)"><path fill="none" stroke="#000000" d="M 440 424 L 490.919921875 424 L 490.919921875 468 L 440 468 L 440 424 Z Z" stroke-miterlimit="10"/></g><g transform="translate(-14,-14) scale(1,1)"><path fill="none" stroke="#000000" d="M 440 449 L 490.919921875 449" stroke-miterlimit="10"/></g><g transform="translate(-14,-14) scale(1,1)"><path fill="none" stroke="#000000" d="M 440 459 L 490.919921875 459" stroke-miterlimit="10"/></g><g transform="translate(-14,-14) scale(1,1)"><g><path fill="none" stroke="none"/><text fill="#000000" stroke="none" font-family="Arial" font-size="13px" font-style="normal" font-weight="bold" text-decoration="none" x="450.64453125" y="443.5">Base</text></g></g><g transform="translate(-14,-14) scale(1,1)"><path fill="none" stroke="#000000" d="M 439 445 L 251 437" stroke-miterlimit="10"/></g><g transform="translate(-14,-14) scale(1,1)"><path fill="none" stroke="#000000" d="M 261.33245263499134 433.2263515604047 L 251 437 L 260.9745197259431 441.63777492303933" stroke-miterlimit="10"/></g><g transform="translate(-14,-14) scale(1,1)"><path fill="none" stroke="#000000" d="M 464 423 L 451 82" stroke-miterlimit="10"/></g><g transform="translate(-14,-14) scale(1,1)"><path fill="none" stroke="#000000" d="M 455.59361419634246 91.99493414761504 L 451 82 L 447.180690035097 92.31566146168012" stroke-miterlimit="10"/></g><g transform="translate(-14,-14) scale(1,1)"><rect fill="#C0C0C0" stroke="none" x="63" y="247" width="78.33544921875" height="57" opacity="0.2"/></g><g transform="translate(-14,-14) scale(1,1)"><rect fill="#ffffff" stroke="none" x="56" y="240" width="78.33544921875" height="57"/></g><g transform="translate(-14,-14) scale(1,1)"><path fill="none" stroke="#000000" d="M 56 240 L 134.33544921875 240 L 134.33544921875 297 L 56 297 L 56 240 Z Z" stroke-miterlimit="10"/></g><g transform="translate(-14,-14) scale(1,1)"><path fill="none" stroke="#000000" d="M 56 278 L 134.33544921875 278" stroke-miterlimit="10"/></g><g transform="translate(-14,-14) scale(1,1)"><path fill="none" stroke="#000000" d="M 56 288 L 134.33544921875 288" stroke-miterlimit="10"/></g><g transform="translate(-14,-14) scale(1,1)"><g><path fill="none" stroke="none"/><text fill="#000000" stroke="none" font-family="Arial" font-size="13px" font-style="normal" font-weight="normal" text-decoration="none" x="60.833251953125" y="257.5">«Singleton»</text></g></g><g transform="translate(-14,-14) scale(1,1)"><g><path fill="none" stroke="none"/><text fill="#000000" stroke="none" font-family="Arial" font-size="13px" font-style="normal" font-weight="bold" text-decoration="none" x="62.642333984375" y="272.5">LandGraph</text></g></g><g transform="translate(-14,-14) scale(1,1)"><rect fill="#C0C0C0" stroke="none" x="263" y="247" width="82.91845703125" height="57" opacity="0.2"/></g><g transform="translate(-14,-14) scale(1,1)"><rect fill="#ffffff" stroke="none" x="256" y="240" width="82.91845703125" height="57"/></g><g transform="translate(-14,-14) scale(1,1)"><path fill="none" stroke="#000000" d="M 256 240 L 338.91845703125 240 L 338.91845703125 297 L 256 297 L 256 240 Z Z" stroke-miterlimit="10"/></g><g transform="translate(-14,-14) scale(1,1)"><path fill="none" stroke="#000000" d="M 256 278 L 338.91845703125 278" stroke-miterlimit="10"/></g><g transform="translate(-14,-14) scale(1,1)"><path fill="none" stroke="#000000" d="M 256 288 L 338.91845703125 288" stroke-miterlimit="10"/></g><g transform="translate(-14,-14) scale(1,1)"><g><path fill="none" stroke="none"/><text fill="#000000" stroke="none" font-family="Arial" font-size="13px" font-style="normal" font-weight="normal" text-decoration="none" x="263.124755859375" y="257.5">«Singleton»</text></g></g><g transform="translate(-14,-14) scale(1,1)"><g><path fill="none" stroke="none"/><text fill="#000000" stroke="none" font-family="Arial" font-size="13px" font-style="normal" font-weight="bold" text-decoration="none" x="262.299560546875" y="272.5">WaterGraph</text></g></g><g transform="translate(-14,-14) scale(1,1)"><path fill="none" stroke="#000000" d="M 280 298 L 229 391" stroke-miterlimit="10"/></g><g transform="translate(-14,-14) scale(1,1)"><path fill="none" stroke="#000000" d="M 230.1955880856406 380.06516716499635 L 229 391 L 237.5775028916347 384.1133139940899" stroke-miterlimit="10"/></g><g transform="translate(-14,-14) scale(1,1)"><path fill="none" stroke="#000000" d="M 115 298 L 176 391" stroke-miterlimit="10"/></g><g transform="translate(-14,-14) scale(1,1)"><path fill="none" stroke="#000000" d="M 166.90627805036112 384.81095959759057 L 176 391 L 173.94607998076663 380.1934551056042" stroke-miterlimit="10"/></g><g transform="translate(-14,-14) scale(1,1)"><path fill="none" stroke="#000000" d="M 290 165 L 295 239" stroke-miterlimit="10"/></g><g transform="translate(-14,-14) scale(1,1)"><path fill="none" stroke="#000000" d="M 290.1149533634666 229.14422406104453 L 295 239 L 298.5148363971853 228.57666439660406" stroke-miterlimit="10"/></g><g transform="translate(-14,-14) scale(1,1)"><g><path fill="none" stroke="none"/><text fill="#000000" stroke="none" font-family="Arial" font-size="13px" font-style="normal" font-weight="normal" text-decoration="none" x="290.39453125" y="206.5">-uses</text></g></g><g transform="translate(-14,-14) scale(1,1)"><path fill="none" stroke="#000000" d="M 97 165 L 95 239" stroke-miterlimit="10"/></g><g transform="translate(-14,-14) scale(1,1)"><path fill="none" stroke="#000000" d="M 91.06658547114054 228.72730560446007 L 95 239 L 99.48254778156911 228.95476404528247" stroke-miterlimit="10"/></g><g transform="translate(-14,-14) scale(1,1)"><g><path fill="none" stroke="none"/><text fill="#000000" stroke="none" font-family="Arial" font-size="13px" font-style="normal" font-weight="normal" text-decoration="none" x="93.39453125" y="204.5">-uses</text></g></g><g transform="translate(-14,-14) scale(1,1)"><rect fill="#C0C0C0" stroke="none" x="695" y="71" width="72.2353515625" height="57" opacity="0.2"/></g><g transform="translate(-14,-14) scale(1,1)"><rect fill="#ffffff" stroke="none" x="688" y="64" width="72.2353515625" height="57"/></g><g transform="translate(-14,-14) scale(1,1)"><path fill="none" stroke="#000000" d="M 688 64 L 760.2353515625 64 L 760.2353515625 121 L 688 121 L 688 64 Z Z" stroke-miterlimit="10"/></g><g transform="translate(-14,-14) scale(1,1)"><path fill="none" stroke="#000000" d="M 688 89 L 760.2353515625 89" stroke-miterlimit="10"/></g><g transform="translate(-14,-14) scale(1,1)"><path fill="none" stroke="#000000" d="M 688 112 L 760.2353515625 112" stroke-miterlimit="10"/></g><g transform="translate(-14,-14) scale(1,1)"><g><path fill="none" stroke="none"/><text fill="#000000" stroke="none" font-family="Arial" font-size="13px" font-style="normal" font-weight="bold" text-decoration="none" x="697.7431640625" y="83.5">Message</text></g></g><g transform="translate(-14,-14) scale(1,1)"><g><path fill="none" stroke="none"/><text fill="#000000" stroke="none" font-family="Arial" font-size="13px" font-style="normal" font-weight="normal" text-decoration="none" x="693" y="106.5">-content</text></g></g><g transform="translate(-14,-14) scale(1,1)"><path fill="none" stroke="#000000" d="M 687 87 L 487 57" stroke-miterlimit="10"/></g><g transform="translate(-14,-14) scale(1,1)"><path fill="none" stroke="#000000" d="M 497.6746803796305 54.34459065439398 L 487 57 L 496.42579683853984 62.670480928331564" stroke-miterlimit="10"/></g><g transform="translate(-14,-14) scale(1,1)"><g><path fill="none" stroke="none"/><text fill="#000000" stroke="none" font-family="Arial" font-size="13px" font-style="normal" font-weight="normal" text-decoration="none" x="560.5" y="92.5">+sender</text></g></g><g transform="translate(-14,-14) scale(1,1)"><path fill="none" stroke="#000000" d="M 687 72 L 600 24 L 487 45" stroke-miterlimit="10"/></g><g transform="translate(-14,-14) scale(1,1)"><path fill="none" stroke="#000000" d="M 496.2224697573808 39.004497387691615 L 487 45 L 497.7607314585167 47.2818103509469" stroke-miterlimit="10"/></g><g transform="translate(-14,-14) scale(1,1)"><g><path fill="none" stroke="none"/><text fill="#000000" stroke="none" font-family="Arial" font-size="13px" font-style="normal" font-weight="normal" text-decoration="none" x="572.5" y="44.5">-recipients</text></g></g><g transform="translate(-14,-14) scale(1,1)"><rect fill="#C0C0C0" stroke="none" x="319" y="567" width="72.2353515625" height="57" opacity="0.2"/></g><g transform="translate(-14,-14) scale(1,1)"><rect fill="#ffffff" stroke="none" x="312" y="560" width="72.2353515625" height="57"/></g><g transform="translate(-14,-14) scale(1,1)"><path fill="none" stroke="#000000" d="M 312 560 L 384.2353515625 560 L 384.2353515625 617 L 312 617 L 312 560 Z Z" stroke-miterlimit="10"/></g><g transform="translate(-14,-14) scale(1,1)"><path fill="none" stroke="#000000" d="M 312 585 L 384.2353515625 585" stroke-miterlimit="10"/></g><g transform="translate(-14,-14) scale(1,1)"><path fill="none" stroke="#000000" d="M 312 608 L 384.2353515625 608" stroke-miterlimit="10"/></g><g transform="translate(-14,-14) scale(1,1)"><g><path fill="none" stroke="none"/><text fill="#000000" stroke="none" font-family="Arial" font-size="13px" font-style="italic" font-weight="bold" text-decoration="none" x="320.914794921875" y="579.5">UnitOrder</text></g></g><g transform="translate(-14,-14) scale(1,1)"><g><path fill="none" stroke="none"/><text fill="#000000" stroke="none" font-family="Arial" font-size="13px" font-style="normal" font-weight="normal" text-decoration="none" x="317" y="602.5">-date</text></g></g><g transform="translate(-14,-14) scale(1,1)"><path fill="none" stroke="#000000" d="M 321 559 L 247 480" stroke-miterlimit="10"/></g><g transform="translate(-14,-14) scale(1,1)"><path fill="none" stroke="#000000" d="M 257.0197599675849 484.53920810185906 L 247 480 L 250.87533538889934 490.29474504898224" stroke-miterlimit="10"/></g><g transform="translate(-14,-14) scale(1,1)"><g><path fill="none" stroke="none"/><text fill="#000000" stroke="none" font-family="Arial" font-size="13px" font-style="normal" font-weight="normal" text-decoration="none" x="226.5" y="535.5">-sourceProvince</text></g></g><g transform="translate(-14,-14) scale(1,1)"><path fill="none" stroke="#000000" d="M 617 424 L 767 503" stroke-miterlimit="10"/></g><g transform="translate(-14,-14) scale(1,1)"><path fill="none" stroke="#000000" d="M 756.0465733293331 501.98884018556697 L 767 503 L 759.9697556855908 494.539759762293" stroke-miterlimit="10"/></g><g transform="translate(-14,-14) scale(1,1)"><g><path fill="none" stroke="none"/><text fill="#000000" stroke="none" font-family="Arial" font-size="13px" font-style="normal" font-weight="normal" text-decoration="none" x="676.5" y="455.5">-creator</text></g></g><g transform="translate(-14,-14) scale(1,1)"><path fill="none" stroke="#000000" d="M 783 311 L 617 387" stroke-miterlimit="10"/></g><g transform="translate(-14,-14) scale(1,1)"><path fill="none" stroke="#000000" d="M 624.4879590073994 378.94205547900043 L 617 387 L 627.9926138046028 386.5969593781552" stroke-miterlimit="10"/></g><g transform="translate(-14,-14) scale(1,1)"><path fill="none" stroke="#000000" d="M 808 495 L 822 322" stroke-miterlimit="10"/></g><g transform="translate(-14,-14) scale(1,1)"><path fill="none" stroke="#000000" d="M 825.3760681495364 332.4691052076902 L 822 322 L 816.984465396972 331.79001596759826" stroke-miterlimit="10"/></g><g transform="translate(-14,-14) scale(1,1)"><path fill="none" stroke="#000000" d="M 568 433 L 568 524 L 768 524" stroke-miterlimit="10"/></g><g transform="translate(-14,-14) scale(1,1)"><path fill="none" stroke="#000000" d="M 757.8373251423759 528.209517756016 L 768 524 L 757.8373251423758 519.790482243984" stroke-miterlimit="10"/></g><g transform="translate(-14,-14) scale(1,1)"><g><path fill="none" stroke="none"/><text fill="#000000" stroke="none" font-family="Arial" font-size="13px" font-style="normal" font-weight="normal" text-decoration="none" x="582.5" y="508.5">-players</text></g></g><g transform="translate(-14,-14) scale(1,1)"><g><path fill="none" stroke="none"/><text fill="#000000" stroke="none" font-family="Arial" font-size="13px" font-style="normal" font-weight="normal" text-decoration="none" x="582.5" y="492.5">«Plays»</text></g></g><g transform="translate(-14,-14) scale(1,1)"><g><path fill="none" stroke="none"/><text fill="#000000" stroke="none" font-family="Arial" font-size="13px" font-style="normal" font-weight="normal" text-decoration="none" x="551.5" y="460.5">1</text></g></g><g transform="translate(-14,-14) scale(1,1)"><g><path fill="none" stroke="none"/><text fill="#000000" stroke="none" font-family="Arial" font-size="13px" font-style="normal" font-weight="normal" text-decoration="none" x="742.5" y="519.5">6</text></g></g><g transform="translate(-14,-14) scale(1,1)"><rect fill="#C0C0C0" stroke="none" x="775" y="503" width="77.6435546875" height="57" opacity="0.2"/></g><g transform="translate(-14,-14) scale(1,1)"><rect fill="#ffffff" stroke="none" x="768" y="496" width="77.6435546875" height="57"/></g><g transform="translate(-14,-14) scale(1,1)"><path fill="none" stroke="#000000" d="M 768 496 L 845.6435546875 496 L 845.6435546875 553 L 768 553 L 768 496 Z Z" stroke-miterlimit="10"/></g><g transform="translate(-14,-14) scale(1,1)"><path fill="none" stroke="#000000" d="M 768 534 L 845.6435546875 534" stroke-miterlimit="10"/></g><g transform="translate(-14,-14) scale(1,1)"><path fill="none" stroke="#000000" d="M 768 544 L 845.6435546875 544" stroke-miterlimit="10"/></g><g transform="translate(-14,-14) scale(1,1)"><g><path fill="none" stroke="none"/><text fill="#000000" stroke="none" font-family="Arial" font-size="13px" font-style="normal" font-weight="normal" text-decoration="none" x="772.5" y="513.5">«SOENEA»</text></g></g><g transform="translate(-14,-14) scale(1,1)"><g><path fill="none" stroke="none"/><text fill="#000000" stroke="none" font-family="Arial" font-size="13px" font-style="normal" font-weight="bold" text-decoration="none" x="793.09814453125" y="528.5">User</text></g></g></g></svg>